<?xml version="1.0" encoding="utf-8"?>
<!-- Generator: Adobe Illustrator 16.0.3, SVG Export Plug-In . SVG Version: 6.00 Build 0)  -->
<!DOCTYPE svg PUBLIC "-//W3C//DTD SVG 1.1//EN" "http://www.w3.org/Graphics/SVG/1.1/DTD/svg11.dtd" [
	<!ENTITY ns_extend "http://ns.adobe.com/Extensibility/1.0/">
	<!ENTITY ns_ai "http://ns.adobe.com/AdobeIllustrator/10.0/">
	<!ENTITY ns_graphs "http://ns.adobe.com/Graphs/1.0/">
	<!ENTITY ns_vars "http://ns.adobe.com/Variables/1.0/">
	<!ENTITY ns_imrep "http://ns.adobe.com/ImageReplacement/1.0/">
	<!ENTITY ns_sfw "http://ns.adobe.com/SaveForWeb/1.0/">
	<!ENTITY ns_custom "http://ns.adobe.com/GenericCustomNamespace/1.0/">
	<!ENTITY ns_adobe_xpath "http://ns.adobe.com/XPath/1.0/">
]>
<svg version="1.1" id="Layer_1" xmlns:x="&ns_extend;" xmlns:i="&ns_ai;" xmlns:graph="&ns_graphs;"
	 xmlns="http://www.w3.org/2000/svg" xmlns:xlink="http://www.w3.org/1999/xlink" x="0px" y="0px" width="512px" height="512px"
	 viewBox="0 0 512 512" enable-background="new 0 0 512 512" xml:space="preserve">
<metadata>
	<sfw  xmlns="&ns_sfw;">
		<slices></slices>
		<sliceSourceBounds  width="511.643" height="360.056" y="-437.056" x="1" bottomLeftOrigin="true"></sliceSourceBounds>
	</sfw>
</metadata>
<g>
	<g>
		<path fill="#666666" d="M351.572,114.899H10.48c-5.236,0-9.48,4.244-9.48,9.48v246.333c0,5.25,4.244,9.475,9.48,9.475h161.076
			v37.9h-47.379c-5.236,0-9.479,4.242-9.479,9.484c0,5.24,4.243,9.484,9.479,9.484h113.697c5.235,0,9.479-4.244,9.479-9.484
			c0-5.242-4.244-9.484-9.479-9.484h-47.379v-37.9h161.077c5.25,0,9.475-4.225,9.475-9.475V124.369
			C361.047,119.133,356.822,114.899,351.572,114.899z M342.098,133.839v189.495H19.95V133.839H342.098z M19.95,361.238v-18.949
			h322.148v18.949H19.95z"/>
		<path fill="#666666" d="M503.168,77H389.471c-5.25,0-9.475,4.244-9.475,9.48v341.092c0,5.24,4.225,9.484,9.475,9.484h113.697
			c5.25,0,9.475-4.244,9.475-9.484V86.48C512.643,81.234,508.418,77,503.168,77z M493.693,418.088h-94.748V95.94h94.748V418.088z"/>
		<path fill="#666666" d="M427.369,152.798h37.9c5.25,0,9.475-4.244,9.475-9.479c0-5.236-4.225-9.48-9.475-9.48h-37.9
			c-5.25,0-9.475,4.244-9.475,9.48C417.895,148.554,422.119,152.798,427.369,152.798z"/>
		<path fill="#666666" d="M427.369,190.697h37.9c5.25,0,9.475-4.243,9.475-9.479c0-5.235-4.225-9.479-9.475-9.479h-37.9
			c-5.25,0-9.475,4.243-9.475,9.479C417.895,186.454,422.119,190.697,427.369,190.697z"/>
		<path fill="#666666" d="M446.318,361.238c15.674,0,28.426-12.771,28.426-28.424c0-15.654-12.771-28.42-28.426-28.42
			c-15.652,0-28.424,12.756-28.424,28.42S430.646,361.238,446.318,361.238z M446.318,323.334c5.232,0,9.477,4.244,9.477,9.48
			c0,5.23-4.244,9.475-9.477,9.475c-5.23,0-9.473-4.244-9.473-9.475C436.846,327.578,441.088,323.334,446.318,323.334z"/>
	</g>
</g>
</svg>
